<svg width="74" height="60" viewBox="0 0 74 60" fill="none" xmlns="http://www.w3.org/2000/svg">
<path d="M52.0041 25.9848V17.3072C52.011 16.3975 51.6568 15.5222 51.0192 14.8732C50.3816 14.2243 49.5126 13.8548 48.6028 13.8457H10.404C9.49435 13.8549 8.62548 14.2245 7.98796 14.8734C7.35043 15.5223 6.99632 16.3976 7.00327 17.3072V18.025H9.31101V17.3072C9.3035 17.0094 9.41431 16.7208 9.61917 16.5045C9.82404 16.2883 10.1063 16.162 10.404 16.1534H48.6028C48.9007 16.162 49.1829 16.2882 49.3879 16.5045C49.5928 16.7207 49.7038 17.0094 49.6964 17.3072V25.9849L52.0041 25.9848Z" fill="#60646C"/>
<path d="M23.8484 21.9609C23.5424 21.9609 23.2489 22.0825 23.0325 22.2989C22.8161 22.5153 22.6946 22.8088 22.6946 23.1148C22.6946 23.4208 22.8161 23.7143 23.0325 23.9307C23.2489 24.1471 23.5424 24.2686 23.8484 24.2686H26.4447C26.7507 24.2686 27.0442 24.1471 27.2606 23.9307C27.4769 23.7143 27.5985 23.4208 27.5985 23.1148C27.5985 22.8088 27.4769 22.5153 27.2606 22.2989C27.0442 22.0825 26.7507 21.9609 26.4447 21.9609H23.8484Z" fill="#60646C"/>
<path d="M29.3486 21.9609C29.0425 21.9609 28.7491 22.0825 28.5327 22.2989C28.3163 22.5153 28.1947 22.8088 28.1947 23.1148C28.1947 23.4208 28.3163 23.7143 28.5327 23.9307C28.7491 24.1471 29.0425 24.2686 29.3486 24.2686H33.7043C34.0103 24.2686 34.3038 24.1471 34.5202 23.9307C34.7366 23.7143 34.8582 23.4208 34.8582 23.1148C34.8582 22.8088 34.7366 22.5153 34.5202 22.2989C34.3038 22.0825 34.0103 21.9609 33.7043 21.9609H29.3486Z" fill="#60646C"/>
<path d="M36.6085 21.9609C36.3024 21.9609 36.0089 22.0825 35.7926 22.2989C35.5762 22.5153 35.4546 22.8088 35.4546 23.1148C35.4546 23.4208 35.5762 23.7143 35.7926 23.9307C36.0089 24.1471 36.3024 24.2686 36.6085 24.2686H40.9642C41.2702 24.2686 41.5637 24.1471 41.7801 23.9307C41.9965 23.7143 42.1181 23.4208 42.1181 23.1148C42.1181 22.8088 41.9965 22.5153 41.7801 22.2989C41.5637 22.0825 41.2702 21.9609 40.9642 21.9609H36.6085Z" fill="#60646C"/>
<path d="M43.8698 21.9609C43.5638 21.9609 43.2703 22.0825 43.0539 22.2989C42.8375 22.5153 42.7159 22.8088 42.7159 23.1148C42.7159 23.4208 42.8375 23.7143 43.0539 23.9307C43.2703 24.1471 43.5638 24.2686 43.8698 24.2686H46.466C46.772 24.2686 47.0655 24.1471 47.2819 23.9307C47.4983 23.7143 47.6199 23.4208 47.6199 23.1148C47.6199 22.8088 47.4983 22.5153 47.2819 22.2989C47.0655 22.0825 46.772 21.9609 46.466 21.9609H43.8698Z" fill="#60646C"/>
<path d="M39.9431 51.9231L41.269 49.6154H5.75684C4.86495 49.6157 4.00938 49.2622 3.37777 48.6325C2.74616 48.0028 2.39009 47.1483 2.38766 46.2564V22.6409H13.5201C14.0732 22.6401 14.618 22.7756 15.1062 23.0355C15.5944 23.2955 16.011 23.6717 16.3191 24.1311C16.3592 24.1907 16.4046 24.2465 16.4549 24.2978L21.1566 29.0743C21.487 29.5295 21.9167 29.9036 22.413 30.1681C22.9094 30.4326 23.4594 30.5807 24.0215 30.6012L52.1947 30.6007L52.2096 30.5747C52.7822 29.5873 53.6361 28.7929 54.6622 28.293L24.0215 28.2935C23.8186 28.2722 23.6227 28.2073 23.4471 28.1032C23.2716 27.9992 23.1206 27.8585 23.0046 27.6906C22.9649 27.6309 22.9196 27.575 22.8693 27.5239L18.1711 22.7513C17.6477 22.0037 16.9516 21.3934 16.1419 20.9724C15.3321 20.5514 14.4327 20.3321 13.5201 20.3332H2.38766V14.6158C2.41043 13.6823 2.78516 12.792 3.43672 12.1232C4.08829 11.4544 4.96856 11.0566 5.90109 11.0094L21.6558 11.01C22.1671 11.0542 22.6811 10.9651 23.1476 10.7515C23.6142 10.5378 24.0174 10.2068 24.3179 9.79081L29.0602 3.87619C29.0804 3.85084 29.0996 3.82492 29.1176 3.79788C29.4259 3.33859 29.8426 2.96235 30.3309 2.70244C30.8192 2.44253 31.364 2.30695 31.9172 2.3077H53.2497C54.1415 2.30744 54.9971 2.66093 55.6287 3.29063C56.2604 3.92033 56.6164 4.77483 56.6189 5.6667V27.7276C57.3964 27.6315 58.1856 27.7138 58.9266 27.9683V5.66671C58.9236 4.16298 58.3242 2.72186 57.2599 1.65951C56.1956 0.597163 54.7534 0.000349515 53.2497 4.22955e-06H31.9172C30.9941 -0.00112326 30.0846 0.223185 29.2679 0.653438C28.4512 1.08369 27.7518 1.70687 27.2307 2.46883L22.4902 8.38114C22.4699 8.4065 22.4507 8.43242 22.4327 8.45946C22.3347 8.60594 22.2693 8.70228 21.6558 8.70228L5.90107 8.70174C4.35746 8.75296 2.89255 9.39531 1.80914 10.496C0.725732 11.5967 0.10667 13.0716 0.0799226 14.6158V21.4814L0.0793457 21.487L0.0799226 21.4926V46.2564C0.08296 47.7601 0.682359 49.2013 1.74662 50.2636C2.81088 51.3259 4.25309 51.9228 5.75684 51.9231H39.9431Z" fill="#60646C"/>
<path d="M60.1795 31.724C59.8778 31.1989 59.443 30.7626 58.9188 30.4592C58.3946 30.1558 57.7997 29.9961 57.194 29.9961C56.5884 29.9961 55.9934 30.1558 55.4692 30.4592C54.9451 30.7626 54.5102 31.1989 54.2085 31.724L40.9255 54.8415C40.6248 55.3651 40.467 55.9584 40.468 56.5621C40.469 57.1659 40.6288 57.7587 40.9312 58.2812C41.2336 58.8037 41.6681 59.2375 42.1912 59.5391C42.7142 59.8407 43.3073 59.9995 43.911 59.9995H70.4776C71.0813 59.9995 71.6744 59.8407 72.1974 59.5391C72.7204 59.2375 73.155 58.8037 73.4574 58.2812C73.7598 57.7587 73.9196 57.1659 73.9206 56.5621C73.9216 55.9584 73.7638 55.3651 73.4631 54.8415L60.1795 31.724ZM71.4602 57.125C71.3621 57.2988 71.2192 57.443 71.0464 57.5427C70.8735 57.6424 70.6771 57.6939 70.4776 57.6918H43.911C43.7119 57.6918 43.5164 57.6394 43.3439 57.5399C43.1715 57.4405 43.0282 57.2974 42.9285 57.1251C42.8288 56.9528 42.7761 56.7573 42.7758 56.5582C42.7755 56.3592 42.8276 56.1635 42.9267 55.9909L56.2097 32.8734C56.3092 32.7003 56.4526 32.5565 56.6254 32.4565C56.7982 32.3564 56.9944 32.3038 57.194 32.3038C57.3937 32.3038 57.5898 32.3564 57.7626 32.4565C57.9354 32.5565 58.0788 32.7003 58.1783 32.8734L71.4619 55.9909C71.5631 56.1628 71.6164 56.3587 71.6161 56.5582C71.6158 56.7577 71.5619 56.9534 71.4602 57.125Z" fill="#60646C"/>
<path d="M57.8675 48.3739C58.0588 48.3732 58.2499 48.3621 58.44 48.3407C58.6417 48.3187 58.8751 48.28 59.1403 48.2246L59.284 40.5015C59.0364 40.4595 58.7865 40.4319 58.5357 40.4187C58.3025 40.408 58.0798 40.4025 57.8675 40.4023C57.6551 40.4023 57.4296 40.4078 57.1909 40.4187C56.9426 40.431 56.6954 40.4587 56.4506 40.5015L56.5942 48.2246C57.0133 48.3127 57.4395 48.3627 57.8675 48.3739Z" fill="#60646C"/>
<path d="M59.2041 49.6154C58.9602 49.5714 58.7296 49.5382 58.5123 49.5157C58.0835 49.4713 57.6514 49.4713 57.2226 49.5157C57.0051 49.5382 56.7745 49.5714 56.5308 49.6154C56.4986 49.8695 56.472 50.1097 56.4508 50.336C56.4293 50.563 56.4188 50.7812 56.4192 50.9906C56.4192 51.2008 56.4297 51.4218 56.4508 51.6538C56.4722 51.8859 56.4988 52.1289 56.5308 52.3828C56.7747 52.4267 57.0053 52.46 57.2226 52.4825C57.6514 52.5261 58.0835 52.5261 58.5123 52.4825C58.7292 52.46 58.9598 52.4267 59.2041 52.3828C59.2363 52.1287 59.2629 51.8857 59.2841 51.6538C59.305 51.4216 59.3155 51.2006 59.3157 50.9906C59.3157 50.7811 59.3052 50.5628 59.2841 50.336C59.2627 50.11 59.2361 49.8698 59.2041 49.6154Z" fill="#60646C"/>
</svg>
